<svg xmlns="http://www.w3.org/2000/svg" xmlns:xlink="http://www.w3.org/1999/xlink" width="400" zoomAndPan="magnify" viewBox="0 0 300 149.999998" height="200" preserveAspectRatio="xMidYMid meet" version="1.0"><defs><g/><clipPath id="88e5ecf94a"><path d="M 53 46 L 93 46 L 93 91 L 53 91 Z M 53 46 " clip-rule="nonzero"/></clipPath><clipPath id="d987dc8d5f"><path d="M 50.785156 85.574219 L 82.542969 43.769531 L 103.445312 59.644531 L 71.6875 101.453125 Z M 50.785156 85.574219 " clip-rule="nonzero"/></clipPath><clipPath id="57f9e034f3"><path d="M 56.160156 89.65625 L 66.199219 97.285156 C 69.167969 99.539062 73.402344 98.960938 75.65625 95.992188 L 99.078125 65.160156 C 101.332031 62.191406 100.753906 57.957031 97.785156 55.703125 L 87.746094 48.074219 C 84.777344 45.820312 80.542969 46.398438 78.289062 49.367188 L 54.867188 80.199219 C 52.613281 83.167969 53.191406 87.402344 56.160156 89.65625 Z M 56.160156 89.65625 " clip-rule="nonzero"/></clipPath><clipPath id="299dcda9cd"><path d="M 50.785156 85.574219 L 82.542969 43.769531 L 103.445312 59.644531 L 71.6875 101.453125 Z M 50.785156 85.574219 " clip-rule="nonzero"/></clipPath><clipPath id="74b979703a"><path d="M 50.785156 85.574219 L 82.542969 43.769531 L 103.445312 59.644531 L 71.6875 101.453125 Z M 50.785156 85.574219 " clip-rule="nonzero"/></clipPath><clipPath id="89b7e56aae"><path d="M 52 44 L 101 44 L 101 99 L 52 99 Z M 52 44 " clip-rule="nonzero"/></clipPath><clipPath id="3fddd417b6"><path d="M 46.144531 91.617188 L 86.976562 37.863281 L 113.851562 58.28125 L 73.019531 112.03125 Z M 46.144531 91.617188 " clip-rule="nonzero"/></clipPath><clipPath id="49a84013e3"><path d="M 59.542969 101.792969 C 66.941406 107.410156 77.492188 105.96875 83.113281 98.570312 L 103.464844 71.777344 C 109.085938 64.378906 107.644531 53.828125 100.246094 48.207031 C 92.847656 42.585938 82.292969 44.027344 76.671875 51.425781 L 56.320312 78.21875 C 50.699219 85.617188 52.144531 96.171875 59.542969 101.792969 Z M 59.542969 101.792969 " clip-rule="nonzero"/></clipPath><clipPath id="530b01f08a"><path d="M 46.144531 91.617188 L 86.976562 37.863281 L 113.851562 58.28125 L 73.019531 112.03125 Z M 46.144531 91.617188 " clip-rule="nonzero"/></clipPath><clipPath id="4fe9fc621a"><path d="M 46.144531 91.617188 L 86.976562 37.863281 L 113.851562 58.28125 L 73.019531 112.03125 Z M 46.144531 91.617188 " clip-rule="nonzero"/></clipPath><clipPath id="9a086affd4"><path d="M 231.710938 50.910156 L 236.960938 50.910156 L 236.960938 59.160156 L 231.710938 59.160156 Z M 231.710938 50.910156 " clip-rule="nonzero"/></clipPath><clipPath id="dde0302547"><path d="M 220.25 52.726562 L 225.5 52.726562 L 225.5 60.976562 L 220.25 60.976562 Z M 220.25 52.726562 " clip-rule="nonzero"/></clipPath><clipPath id="83afd3bcb8"><path d="M 243.152344 52.726562 L 248.402344 52.726562 L 248.402344 60.976562 L 243.152344 60.976562 Z M 243.152344 52.726562 " clip-rule="nonzero"/></clipPath></defs><g fill="#000000" fill-opacity="1"><g transform="translate(108.0131, 84.576006)"><g><path d="M 45.703125 0 L 36.171875 0 L 36.171875 -14.484375 L 27.65625 0 L 20.546875 0 L 12.0625 -14.484375 L 12.0625 0 L 2.53125 0 L 2.53125 -22.703125 L 13.84375 -22.703125 L 24.109375 -6.484375 L 34.375 -22.703125 L 45.703125 -22.703125 Z M 45.703125 0 "/></g></g></g><g fill="#000000" fill-opacity="1"><g transform="translate(156.231313, 84.576006)"><g><path d="M 29.875 0 L 2.53125 0 L 2.53125 -22.703125 L 28.625 -22.703125 L 28.625 -17.09375 L 12.0625 -17.09375 L 12.0625 -13.53125 L 26.0625 -13.53125 L 26.0625 -9.15625 L 12.0625 -9.15625 L 12.0625 -5.625 L 29.875 -5.625 Z M 29.875 0 "/></g></g></g><g fill="#000000" fill-opacity="1"><g transform="translate(187.364332, 84.576006)"><g><path d="M 29.03125 0 L 2.53125 0 L 2.53125 -22.703125 L 12.0625 -22.703125 L 12.0625 -5.625 L 29.03125 -5.625 Z M 29.03125 0 "/></g></g></g><g fill="#000000" fill-opacity="1"><g transform="translate(217.026135, 84.576006)"><g><path d="M 17.171875 0.484375 C 11.554688 0.484375 7.425781 -0.664062 4.78125 -2.96875 C 2.4375 -5.019531 1.265625 -7.8125 1.265625 -11.34375 C 1.265625 -14.863281 2.4375 -17.648438 4.78125 -19.703125 C 7.425781 -22.015625 11.554688 -23.171875 17.171875 -23.171875 C 22.785156 -23.171875 26.914062 -22.015625 29.5625 -19.703125 C 31.90625 -17.648438 33.078125 -14.863281 33.078125 -11.34375 C 33.078125 -7.8125 31.90625 -5.019531 29.5625 -2.96875 C 26.914062 -0.664062 22.785156 0.484375 17.171875 0.484375 Z M 17.171875 -5.59375 C 19.472656 -5.59375 21.160156 -6.253906 22.234375 -7.578125 C 23.097656 -8.640625 23.53125 -9.894531 23.53125 -11.34375 C 23.53125 -12.789062 23.097656 -14.039062 22.234375 -15.09375 C 21.160156 -16.425781 19.472656 -17.09375 17.171875 -17.09375 C 14.867188 -17.09375 13.175781 -16.425781 12.09375 -15.09375 C 11.226562 -14.039062 10.796875 -12.789062 10.796875 -11.34375 C 10.796875 -9.894531 11.226562 -8.640625 12.09375 -7.578125 C 13.175781 -6.253906 14.867188 -5.59375 17.171875 -5.59375 Z M 17.171875 -5.59375 "/></g></g></g><g clip-path="url(#88e5ecf94a)"><g clip-path="url(#d987dc8d5f)"><g clip-path="url(#57f9e034f3)"><g clip-path="url(#299dcda9cd)"><g clip-path="url(#74b979703a)"><path fill="#e88684" d="M 82.347656 44.023438 C 93.828125 52.742188 96.0625 69.113281 87.34375 80.589844 C 78.621094 92.070312 62.28125 94.273438 50.800781 85.550781 Z M 82.347656 44.023438 " fill-opacity="1" fill-rule="nonzero"/></g></g></g></g></g><g clip-path="url(#89b7e56aae)"><g clip-path="url(#3fddd417b6)"><g clip-path="url(#49a84013e3)"><g clip-path="url(#530b01f08a)"><g clip-path="url(#4fe9fc621a)"><path fill="#c1ff72" d="M 80.78125 46.019531 C 91.144531 53.890625 93.167969 68.703125 85.292969 79.066406 C 77.421875 89.429688 62.609375 91.453125 52.246094 83.582031 L 46.164062 91.59375 C 60.960938 102.835938 82.0625 99.953125 93.304688 85.152344 C 104.546875 70.355469 101.628906 49.296875 86.832031 38.054688 Z M 80.78125 46.019531 " fill-opacity="1" fill-rule="nonzero"/></g></g></g></g></g><g clip-path="url(#9a086affd4)"><path fill="#3e88ef" d="M 234.230469 59.160156 C 234.253906 59.160156 234.277344 59.148438 234.289062 59.125 C 234.300781 59.097656 235.527344 56.496094 236.519531 54.402344 C 236.949219 53.492188 236.949219 52.613281 236.511719 51.925781 C 236.058594 51.207031 235.164062 50.757812 234.179688 50.757812 C 233.21875 50.757812 232.378906 51.179688 231.933594 51.882812 C 231.496094 52.574219 231.5 53.46875 231.941406 54.402344 C 232.933594 56.496094 234.160156 59.097656 234.171875 59.125 C 234.183594 59.148438 234.207031 59.160156 234.230469 59.160156 Z M 234.230469 59.160156 " fill-opacity="1" fill-rule="nonzero"/></g><g clip-path="url(#dde0302547)"><path fill="#c1ff72" d="M 222.769531 60.976562 C 222.796875 60.976562 222.820312 60.964844 222.828125 60.941406 C 222.839844 60.914062 224.066406 58.3125 225.0625 56.21875 C 225.492188 55.308594 225.488281 54.429688 225.054688 53.746094 C 224.597656 53.023438 223.703125 52.574219 222.722656 52.574219 C 221.757812 52.574219 220.917969 52.996094 220.472656 53.699219 C 220.035156 54.390625 220.039062 55.285156 220.480469 56.21875 C 221.472656 58.3125 222.699219 60.914062 222.710938 60.941406 C 222.722656 60.964844 222.746094 60.976562 222.769531 60.976562 Z M 222.769531 60.976562 " fill-opacity="1" fill-rule="nonzero"/></g><g clip-path="url(#83afd3bcb8)"><path fill="#e88684" d="M 245.671875 60.976562 C 245.699219 60.976562 245.71875 60.964844 245.730469 60.941406 C 245.742188 60.914062 246.96875 58.3125 247.964844 56.21875 C 248.394531 55.308594 248.390625 54.429688 247.957031 53.746094 C 247.5 53.023438 246.605469 52.574219 245.625 52.574219 C 244.660156 52.574219 243.820312 52.996094 243.375 53.699219 C 242.9375 54.390625 242.941406 55.285156 243.382812 56.21875 C 244.375 58.3125 245.601562 60.914062 245.613281 60.941406 C 245.625 60.964844 245.648438 60.976562 245.671875 60.976562 Z M 245.671875 60.976562 " fill-opacity="1" fill-rule="nonzero"/></g></svg>